<?xml version="1.0" standalone="no"?>
<!DOCTYPE svg PUBLIC "-//W3C//DTD SVG 20010904//EN"
 "http://www.w3.org/TR/2001/REC-SVG-20010904/DTD/svg10.dtd">
<svg version="1.0" xmlns="http://www.w3.org/2000/svg"
 width="500.000000pt" height="500.000000pt" viewBox="0 0 500.000000 500.000000"
 preserveAspectRatio="xMidYMid meet">

<g transform="translate(0.000000,500.000000) scale(0.100000,-0.100000)"
fill="#000000" stroke="none">
<path d="M1359 4807 c-18 -12 -43 -36 -54 -53 -26 -39 -147 -604 -153 -714 -5
-106 20 -171 104 -260 35 -37 73 -88 84 -114 40 -90 38 -115 -45 -451 -41
-170 -78 -318 -81 -327 -6 -20 -39 -17 -123 14 -87 31 -160 8 -196 -62 -17
-33 -20 -112 -5 -140 8 -16 4 -21 -27 -37 -57 -27 -85 -77 -81 -138 3 -27 8
-58 12 -67 6 -13 -1 -21 -32 -37 -90 -46 -104 -131 -38 -241 8 -14 17 -38 21
-53 10 -51 63 -95 145 -123 41 -13 80 -26 87 -29 8 -3 6 -24 -8 -77 -22 -87
-24 -128 -5 -171 31 -74 125 -128 198 -113 92 18 150 86 164 193 6 49 9 53 34
53 14 0 48 7 75 16 l48 17 189 -191 c157 -159 196 -194 231 -203 23 -7 51 -20
62 -30 11 -10 32 -22 47 -28 14 -5 54 -46 87 -90 48 -63 61 -87 61 -116 0 -73
49 -139 124 -166 31 -11 34 -16 40 -68 9 -76 60 -265 96 -357 113 -284 257
-449 442 -505 59 -18 87 -21 186 -17 125 5 182 22 261 73 l39 26 26 -26 c26
-26 30 -26 102 -20 51 5 88 4 113 -5 33 -11 48 -9 141 20 101 31 150 59 150
86 0 16 48 51 82 59 52 13 74 52 127 227 42 142 50 180 50 249 0 62 -4 84 -17
98 -32 32 -232 341 -233 358 -4 99 -124 193 -205 163 -22 -9 -31 -7 -48 9 -12
11 -40 30 -64 44 l-42 24 53 36 c29 20 68 52 86 71 33 34 36 35 91 29 53 -5
59 -3 88 23 22 22 39 57 66 139 42 128 45 171 15 209 l-22 28 23 41 c13 23 40
69 59 102 l36 60 59 7 c222 28 392 253 356 472 -30 188 -174 332 -355 355
l-50 6 -7 75 c-18 195 -137 359 -333 456 -116 57 -197 77 -315 77 -171 0 -315
-57 -415 -165 -30 -32 -55 -63 -55 -67 0 -4 -32 9 -72 28 -69 35 -76 36 -182
36 -104 0 -115 -2 -178 -32 -261 -124 -321 -471 -117 -675 l51 -51 -6 -66
c-15 -153 -17 -161 -40 -161 -11 0 -35 -9 -52 -19 -28 -17 -37 -36 -73 -143
-23 -68 -41 -137 -41 -155 0 -40 40 -89 80 -98 24 -5 30 -13 35 -43 33 -212
146 -396 305 -498 33 -22 60 -41 60 -44 0 -3 -17 -7 -37 -8 -86 -5 -161 -33
-214 -80 -30 -26 -40 -29 -69 -23 -19 4 -49 4 -67 0 -30 -6 -35 -2 -89 58 -69
78 -94 125 -94 173 0 40 -9 57 -175 315 -128 200 -137 212 -191 236 -51 23
-69 54 -55 93 20 50 13 127 -14 175 -14 23 -25 44 -25 45 0 2 27 24 60 49 32
25 67 61 76 78 21 41 14 120 -13 157 -50 68 -156 81 -227 27 -20 -15 -38 -26
-40 -24 -7 7 104 633 120 676 19 51 81 123 125 144 19 9 64 31 101 48 75 35
120 81 154 156 32 71 157 677 151 736 -4 53 -35 102 -77 124 -37 19 -591 135
-646 135 -26 0 -53 -8 -75 -23z m140 -201 c10 -12 1 -71 -43 -279 -31 -145
-58 -271 -62 -280 -3 -10 -16 -17 -29 -17 -41 0 -46 19 -26 116 11 49 36 170
56 269 21 99 42 186 47 193 14 16 43 15 57 -2z m239 -62 c3 -23 -93 -505 -108
-541 -11 -27 -57 -32 -67 -7 -6 17 90 510 107 552 13 31 63 28 68 -4z m236
-43 c7 -11 -104 -542 -116 -558 -15 -19 -46 -16 -57 5 -13 25 95 552 117 569
15 12 44 4 56 -16z m1571 -866 c201 -52 383 -217 430 -388 10 -39 16 -88 13
-129 l-3 -66 61 -5 c155 -15 281 -108 336 -249 30 -76 29 -193 -1 -271 -30
-76 -115 -168 -187 -202 -148 -70 -292 -48 -432 66 l-53 43 59 27 c69 31 142
93 142 120 0 30 -18 23 -77 -31 -63 -58 -152 -92 -185 -71 -189 118 -477 219
-716 251 -87 12 -94 15 -123 48 -39 44 -60 92 -68 157 -4 35 -10 50 -21 50
-37 0 -15 -130 36 -204 l24 -36 -57 -6 c-78 -9 -177 6 -240 37 -70 34 -155
127 -184 201 -31 81 -30 196 1 278 32 84 131 183 215 215 119 45 266 27 360
-46 l45 -34 21 42 c49 95 175 183 309 213 77 18 207 13 295 -10z m-2403 -797
c112 -45 154 -76 163 -119 13 -59 -46 -129 -107 -129 -38 0 -241 88 -260 113
-41 53 -16 141 47 167 34 15 52 11 157 -32z m584 -42 c27 -27 34 -42 34 -72
-1 -22 -6 -49 -13 -62 -16 -27 -180 -150 -213 -158 -36 -9 -73 4 -105 36 -24
24 -29 37 -29 77 0 56 15 74 135 162 59 42 77 51 114 51 36 0 49 -6 77 -34z
m1029 -97 c116 -4 219 -10 230 -13 11 -3 61 -14 112 -26 223 -50 465 -160 618
-281 103 -82 130 -97 207 -119 l57 -15 -49 -85 c-27 -47 -51 -89 -53 -94 -1
-5 -90 34 -197 87 -222 109 -422 187 -628 247 -152 44 -428 104 -527 115 -103
11 -99 7 -91 89 4 39 9 87 12 107 l6 37 47 -21 c40 -18 74 -22 256 -28z
m-1697 -106 c121 -49 152 -77 152 -133 0 -56 -55 -110 -112 -110 -37 0 -237
91 -258 117 -51 65 0 170 84 172 11 1 71 -20 134 -46z m582 -133 c20 -40 27
-123 12 -148 -7 -10 -15 -10 -36 -2 -47 18 -106 12 -153 -15 -23 -14 -43 -30
-43 -35 0 -6 -4 -10 -8 -10 -5 0 0 49 11 109 l20 110 46 -5 c33 -3 57 1 86 15
22 11 41 20 42 20 2 1 12 -17 23 -39z m915 10 c39 -6 83 -13 98 -16 l28 -6
-38 -41 c-21 -23 -49 -60 -62 -82 -14 -22 -25 -41 -26 -42 -3 -5 -160 49 -169
58 -5 5 -2 28 9 56 27 73 41 91 67 87 13 -2 55 -8 93 -14z m-1595 -116 c123
-52 150 -76 150 -135 0 -29 -8 -47 -29 -71 -41 -46 -87 -44 -220 12 -80 34
-108 51 -123 74 -34 54 -10 133 47 157 37 15 66 9 175 -37z m2217 -36 c101
-33 180 -64 177 -69 -7 -11 -139 -4 -195 11 -59 16 -147 62 -189 99 l-35 31
30 -6 c17 -4 112 -33 212 -66z m-645 -89 c-37 -144 -37 -223 -1 -328 38 -110
102 -195 194 -256 66 -43 267 -112 355 -120 196 -20 396 96 486 281 21 44 39
81 40 83 4 5 164 -50 164 -57 0 -25 -74 -128 -134 -188 -79 -78 -148 -121
-258 -161 -65 -24 -87 -27 -203 -27 l-130 0 -156 52 c-178 59 -255 102 -343
189 -101 101 -165 226 -187 364 -11 70 -8 207 5 228 10 15 172 -44 168 -60z
m-911 28 c75 -50 86 -137 26 -204 -81 -88 -227 -30 -227 90 0 109 113 173 201
114z m297 -329 c79 -122 146 -236 149 -253 5 -29 4 -30 -37 -31 -34 0 -48 -6
-67 -28 -13 -16 -27 -41 -30 -57 -3 -16 -7 -29 -10 -29 -22 0 -85 56 -238 209
l-179 180 23 24 c12 14 39 27 61 31 72 11 139 95 140 174 0 32 1 33 22 18 11
-8 86 -115 166 -238z m956 179 c14 -39 -3 -78 -40 -93 -38 -16 -71 -2 -94 39
-13 24 -13 30 0 54 34 60 113 59 134 0z m-1881 -37 c20 0 20 -1 7 -34 l-9 -25
-73 25 c-40 14 -80 30 -88 37 -18 13 -50 58 -50 68 0 4 44 -11 98 -32 53 -21
105 -39 115 -39z m2831 -38 c6 -11 -22 -134 -33 -145 -5 -5 -47 3 -93 18 l-83
28 0 81 c0 44 -4 93 -8 109 l-7 27 109 -54 c60 -31 112 -59 115 -64z m-2434
46 c0 -21 49 -75 79 -88 17 -7 31 -16 31 -20 0 -4 -17 -19 -37 -33 -45 -30
-113 -46 -113 -26 0 38 25 179 32 179 4 0 8 -5 8 -12z m1944 -99 c54 -43 23
-129 -47 -129 -38 0 -62 21 -72 62 -6 22 -1 33 23 58 36 35 60 38 96 9z m-414
-110 c46 -48 108 -66 165 -50 59 18 80 18 80 1 0 -22 -64 -50 -115 -50 -82 0
-185 66 -205 131 -9 28 16 46 30 22 6 -10 26 -34 45 -54z m-1738 -34 c17 -38
-3 -75 -42 -75 -21 0 -34 8 -46 25 -15 23 -15 27 0 50 12 17 25 25 46 25 23 0
33 -6 42 -25z m906 -253 c31 -40 1 -102 -50 -102 -30 0 -68 31 -68 56 0 61 81
93 118 46z m132 -177 c0 -5 -13 -25 -28 -43 l-27 -32 -43 54 -42 55 27 28 28
29 43 -40 c23 -22 42 -45 42 -51z m700 51 c185 -61 355 -61 503 0 33 13 62 22
64 20 2 -1 -15 -15 -38 -31 -107 -70 -168 -151 -169 -222 l0 -33 -254 0 -254
0 -6 23 c-3 12 -6 31 -6 43 0 38 -57 110 -129 164 -39 29 -69 55 -66 58 12 12
86 20 160 18 62 -1 106 -11 195 -40z m-576 -62 c13 -5 13 -11 -6 -47 -17 -32
-24 -66 -28 -144 l-5 -102 -30 15 c-52 26 -70 61 -70 136 0 60 3 70 30 98 16
17 43 35 60 39 16 5 31 10 32 10 1 1 8 -2 17 -5z m1445 -23 c61 -43 78 -149
34 -209 -30 -41 -88 -66 -126 -55 -40 11 -56 51 -56 141 -2 131 62 184 148
123z m185 -320 c42 -62 76 -114 74 -115 -2 -1 -16 -10 -31 -20 -16 -10 -30
-16 -31 -14 -2 2 -37 46 -80 99 l-76 97 27 41 c15 23 30 38 33 34 4 -5 42 -59
84 -122z m-658 73 c70 -52 90 -123 55 -193 -41 -79 -50 -81 -346 -81 -242 0
-262 1 -293 20 -100 61 -95 203 9 258 43 22 49 23 296 20 236 -3 253 -4 279
-24z m563 -152 l82 -103 -24 -32 c-13 -18 -59 -98 -102 -179 -44 -82 -83 -148
-88 -148 -5 0 -36 26 -68 58 l-59 57 35 103 c19 57 45 155 57 218 20 103 24
115 48 123 14 5 28 9 32 8 3 -1 43 -48 87 -105z m219 -114 c3 -22 -2 -29 -22
-34 -32 -8 -46 1 -46 30 0 30 9 38 40 34 19 -2 26 -10 28 -30z m-1079 -58
c196 0 256 5 301 24 12 5 23 -12 49 -76 18 -46 53 -120 76 -165 24 -45 40 -84
37 -87 -3 -3 -26 -6 -52 -6 -57 0 -84 -24 -82 -74 1 -32 0 -33 -51 -44 -209
-46 -431 -38 -642 23 -38 11 -70 29 -87 47 l-27 29 49 92 c42 79 93 190 113
249 5 15 10 15 53 2 35 -10 105 -14 263 -14z m1049 -20 c43 0 42 -9 -18 -210
-35 -116 -56 -170 -71 -182 -26 -22 -39 -23 -39 -3 0 17 -92 113 -119 123 -16
6 -10 22 59 149 100 184 96 180 130 148 17 -16 37 -25 58 -25z m-441 -258
c-48 -4 -53 1 -38 34 l11 26 33 -29 32 -28 -38 -3z m197 -63 c6 -5 1 -18 -14
-34 -33 -35 -31 -81 4 -112 39 -33 24 -47 -94 -83 -104 -32 -125 -32 -134 3
-11 43 -7 222 7 236 9 10 37 11 117 6 58 -3 109 -11 114 -16z m-286 -35 c-3
-16 -13 -19 -73 -19 -63 0 -70 2 -70 20 0 17 8 21 65 25 71 6 84 1 78 -26z
m350 -26 c18 -18 14 -46 -9 -58 -26 -14 -49 3 -49 35 0 32 35 46 58 23z m-873
-92 c137 0 198 4 254 17 41 9 76 16 77 14 1 -1 4 -15 6 -31 3 -25 -4 -34 -52
-67 -138 -96 -350 -110 -503 -33 -46 24 -167 127 -167 144 0 4 46 -5 103 -18
88 -21 127 -25 282 -26z m525 29 c0 -24 -2 -25 -69 -25 -70 0 -88 8 -77 35 4
11 23 15 76 15 68 0 70 -1 70 -25z m2 -89 c5 -23 2 -24 -60 -31 -53 -6 -67 -4
-81 10 -15 15 -15 17 3 31 12 8 43 14 77 14 52 0 57 -2 61 -24z"/>
</g>
</svg>
